<svg width="190" height="64" viewBox="0 0 190 64" fill="none" xmlns="http://www.w3.org/2000/svg">
<path d="M159.576 17.1338V24.5671H181.308L160.22 61.9443H168.913L190 24.6198V17.1338H159.576Z" fill="#0C0C91"/>
<path d="M19.7995 2.16113H12.1802L1.60971 12.5466L5.47303 19.2946L12.1802 12.7048V39.4857H0V46.9717H30.4236V39.4857H19.7995V2.16113Z" fill="#0C0C91"/>
<path d="M45.6086 24.4616L54.5694 33.2656C49.311 35.6379 45.6086 40.857 45.6086 46.9196C45.6086 55.1964 52.4231 61.8389 60.7936 61.8389C69.1641 61.8389 75.9786 55.1436 75.9786 46.9196H68.3593C68.3593 51.0316 64.9252 54.4056 60.74 54.4056C56.5547 54.4056 53.228 51.0843 53.228 46.9196C53.228 42.8076 56.7157 39.4336 60.9009 39.4336L64.7642 32.7384L56.3401 24.4616H76.0322V17.0283H45.6086V24.4616Z" fill="#0C0C91"/>
<path d="M114.021 9.5944H133.714L125.289 17.8712L129.153 24.5664C133.338 24.5664 136.826 27.9404 136.826 32.0524C136.826 36.1644 133.392 39.5384 129.206 39.5384C125.021 39.5384 121.587 36.1644 121.587 32.0524H113.968C113.968 40.3292 120.782 46.9717 129.153 46.9717C137.523 46.9717 144.338 40.2764 144.338 32.0524C144.338 25.9898 140.635 20.7707 135.377 18.3983L144.338 9.5944V2.1084H113.914V9.5944H114.021Z" fill="#0C0C91"/>
<path d="M91.2172 64L98.7828 61.944V0L91.2172 2.00329V64Z" fill="#05E273"/>
</svg>
