<svg width="130" height="44" viewBox="0 0 130 44" fill="none" xmlns="http://www.w3.org/2000/svg">
<path d="M109.184 11.7793V16.8897H124.053L109.624 42.5865H115.572L130 16.9259V11.7793H109.184Z" fill="white"/>
<path d="M13.547 1.48633H8.3338L1.10138 8.62636L3.7447 13.2656L8.3338 8.73509V27.147H0V32.2936H20.8162V27.147H13.547V1.48633Z" fill="white"/>
<path d="M31.2058 16.8174L37.3368 22.8701C33.739 24.5011 31.2058 28.0892 31.2058 32.2573C31.2058 37.9476 35.8683 42.5143 41.5955 42.5143C47.3227 42.5143 51.9853 37.9113 51.9853 32.2573H46.772C46.772 35.0843 44.4224 37.4039 41.5588 37.4039C38.6952 37.4039 36.419 35.1205 36.419 32.2573C36.419 29.4303 38.8054 27.1107 41.669 27.1107L44.3123 22.5077L38.5484 16.8174H52.022V11.707H31.2058V16.8174Z" fill="white"/>
<path d="M78.0146 6.59682H91.4882L85.7243 12.2871L88.3676 16.8901C91.2312 16.8901 93.6175 19.2097 93.6175 22.0367C93.6175 24.8637 91.2679 27.1833 88.4043 27.1833C85.5407 27.1833 83.1911 24.8637 83.1911 22.0367H77.9779C77.9779 27.727 82.6404 32.2937 88.3676 32.2937C94.0948 32.2937 98.7573 27.6907 98.7573 22.0367C98.7573 17.8686 96.2241 14.2805 92.6263 12.6495L98.7573 6.59682V1.4502H77.9412V6.59682H78.0146Z" fill="white"/>
<path d="M62.4119 44L67.5884 42.5865V0L62.4119 1.37727V44Z" fill="#05E273"/>
</svg>
